<svg xmlns="http://www.w3.org/2000/svg" width="30" height="30" fill="none" viewBox="0 0 30 30">
  <path fill="#1C153C" d="M15 9.375a5.634 5.634 0 0 0-5.625 5.626c0 3.1 2.526 5.625 5.626 5.625 3.1 0 5.625-2.526 5.625-5.625 0-3.1-2.526-5.626-5.625-5.626Zm14.439 4.717-5.55-2.771 1.964-5.883c.263-.797-.492-1.553-1.283-1.284l-5.884 1.963L15.91.563a1.014 1.014 0 0 0-1.817 0l-2.771 5.549-5.89-1.963c-.796-.264-1.552.492-1.282 1.283l1.963 5.883-5.55 2.777a1.014 1.014 0 0 0 0 1.817l5.55 2.772L4.15 24.57c-.264.796.492 1.552 1.283 1.283l5.883-1.963 2.772 5.549c.375.75 1.441.75 1.816 0l2.772-5.55 5.883 1.964c.797.263 1.553-.492 1.283-1.284l-1.963-5.883 5.55-2.771c.761-.381.761-1.447.01-1.822Zm-9.135 6.212c-2.924 2.924-7.682 2.924-10.606 0-2.924-2.924-2.924-7.682 0-10.606 2.924-2.924 7.682-2.924 10.606 0 2.924 2.924 2.924 7.682 0 10.606Z" opacity=".75"/>
</svg>
