<?xml version="1.0" encoding="UTF-8"?>
<svg fill="none" viewBox="0 0 34 30" xmlns="http://www.w3.org/2000/svg">
<path d="m9.5657 11.686c-1.1752 0-2.1247 0.9495-2.1247 2.1247s0.94949 2.1247 2.1247 2.1247c1.1752 0 2.1247-0.9495 2.1247-2.1247s-0.9495-2.1247-2.1247-2.1247zm7.4365 0c-1.1752 0-2.1247 0.9495-2.1247 2.1247s0.9495 2.1247 2.1247 2.1247 2.1247-0.9495 2.1247-2.1247-0.9495-2.1247-2.1247-2.1247zm7.4365 0c-1.1752 0-2.1247 0.9495-2.1247 2.1247s0.9495 2.1247 2.1247 2.1247c1.1753 0 2.1248-0.9495 2.1248-2.1247s-0.9495-2.1247-2.1248-2.1247zm-7.4365-11.686c-9.3886 0-16.998 6.1816-16.998 13.811 0 3.1605 1.3213 6.0555 3.5124 8.386-0.98932 2.6161-3.0476 4.8338-3.0808 4.8603-0.43822 0.4648-0.55774 1.1421-0.30543 1.7264s0.82997 0.9627 1.4674 0.9627c4.0835 0 7.3037-1.7064 9.236-3.0742 1.9189 0.6043 3.9905 0.9495 6.1683 0.9495 9.3886 0 16.998-6.1816 16.998-13.811 0-7.6291-7.6092-13.811-16.998-13.811zm0 24.434c-1.7728 0-3.5257-0.2722-5.2056-0.8034l-1.5072-0.478-1.2948 0.9162c-0.94949 0.6707-2.2509 1.421-3.8179 1.9256 0.48471-0.8034 0.95613-1.7064 1.3213-2.6692l0.70381-1.8658-1.3678-1.4475c-1.2018-1.2814-2.6426-3.3995-2.6426-6.2015 0-5.8563 6.1949-10.624 13.811-10.624 7.6158 0 13.811 4.7674 13.811 10.624 0 5.8563-6.1949 10.624-13.811 10.624z" fill="#FBFAFF"/>
</svg>
