<?xml version="1.0" encoding="UTF-8"?>
<svg fill="none" viewBox="0 0 31 36" xmlns="http://www.w3.org/2000/svg">
<path d="m15.5 35.429c2.4441 0 4.4265-1.9825 4.4265-4.4286h-8.8529c0 2.4461 1.9824 4.4286 4.4264 4.4286zm14.904-10.359c-1.3369-1.4365-3.8384-3.5975-3.8384-10.676 0-5.3766-3.7698-9.6806-8.853-10.737v-1.442c0-1.2227-0.9908-2.2143-2.2129-2.2143-1.222 0-2.2129 0.99158-2.2129 2.2143v1.442c-5.0831 1.0559-8.8529 5.36-8.8529 10.737 0 7.0788-2.5015 9.2398-3.8383 10.676-0.41518 0.4463-0.59924 0.9798-0.59578 1.5022 0.0076116 1.1348 0.89817 2.2143 2.2212 2.2143h26.558c1.3231 0 2.2143-1.0795 2.2212-2.2143 0.0035-0.5224-0.1806-1.0566-0.5957-1.5022z" fill="#FDA759"/>
</svg>
