<svg id="Pattern" xmlns="http://www.w3.org/2000/svg" width="240" height="320" viewBox="0 0 240 320">
  <defs>
    <style>
      .cls-1 {
        fill: #fda759;
      }

      .cls-2 {
        fill: #42d989;
      }

      .cls-3 {
        fill: #ff6474;
      }

      .cls-4 {
        fill: #8198f6;
      }
    </style>
  </defs>
  <path id="Subtraction_34" data-name="Subtraction 34" class="cls-1" d="M0,0H0V80a39.747,39.747,0,0,0,15.57-3.143,39.866,39.866,0,0,0,12.714-8.572,39.867,39.867,0,0,0,8.572-12.715,40.133,40.133,0,0,0,0-31.14,39.866,39.866,0,0,0-8.572-12.714A39.866,39.866,0,0,0,15.57,3.143,39.75,39.75,0,0,0,0,0Z" transform="translate(40 80) rotate(180)"/>
  <path id="Subtraction_35" data-name="Subtraction 35" class="cls-2" d="M67,80h0V40H27A40.022,40.022,0,1,1,67,80Z" transform="translate(13 0)"/>
  <path id="Subtraction_36" data-name="Subtraction 36" class="cls-3" d="M0,0H0V80a39.747,39.747,0,0,0,15.57-3.143,39.866,39.866,0,0,0,12.714-8.572A39.867,39.867,0,0,0,36.856,55.57a40.133,40.133,0,0,0,0-31.14,39.866,39.866,0,0,0-8.572-12.714A39.866,39.866,0,0,0,15.57,3.143,39.75,39.75,0,0,0,0,0Z" transform="translate(160 80) rotate(180)"/>
  <path id="Subtraction_37" data-name="Subtraction 37" class="cls-4" d="M40,80h0V40H0A40.011,40.011,0,0,1,76.857,24.43,39.989,39.989,0,0,1,40,80Z" transform="translate(160 0)"/>
  <path id="Subtraction_38" data-name="Subtraction 38" class="cls-1" d="M0,80H0V0A39.747,39.747,0,0,1,15.57,3.143a39.866,39.866,0,0,1,12.714,8.572,39.867,39.867,0,0,1,8.572,12.715,40.132,40.132,0,0,1,0,31.14,39.866,39.866,0,0,1-8.572,12.714A39.866,39.866,0,0,1,15.57,76.857,39.75,39.75,0,0,1,0,80Z" transform="translate(200 80)"/>
  <path id="Subtraction_39" data-name="Subtraction 39" class="cls-4" d="M40,0h0V40H0A40.011,40.011,0,0,0,76.857,55.57,39.989,39.989,0,0,0,40,0Z" transform="translate(200 160) rotate(180)"/>
  <path id="Subtraction_40" data-name="Subtraction 40" class="cls-3" d="M0,80H0V0A39.747,39.747,0,0,1,15.57,3.143a39.866,39.866,0,0,1,12.714,8.572,39.867,39.867,0,0,1,8.572,12.715,40.133,40.133,0,0,1,0,31.14,39.866,39.866,0,0,1-8.572,12.714A39.866,39.866,0,0,1,15.57,76.857,39.75,39.75,0,0,1,0,80Z" transform="translate(80 80)"/>
  <path id="Subtraction_41" data-name="Subtraction 41" class="cls-2" d="M40,0h0V40H0A40.011,40.011,0,0,0,76.857,55.57,39.989,39.989,0,0,0,40,0Z" transform="translate(80 160) rotate(180)"/>
  <path id="Subtraction_42" data-name="Subtraction 42" class="cls-3" d="M0,0H0V80a39.747,39.747,0,0,0,15.57-3.143,39.866,39.866,0,0,0,12.714-8.572,39.867,39.867,0,0,0,8.572-12.715,40.133,40.133,0,0,0,0-31.14,39.866,39.866,0,0,0-8.572-12.714A39.866,39.866,0,0,0,15.57,3.143,39.75,39.75,0,0,0,0,0Z" transform="translate(40 240) rotate(180)"/>
  <path id="Subtraction_43" data-name="Subtraction 43" class="cls-4" d="M67,80h0V40H27A40.022,40.022,0,1,1,67,80Z" transform="translate(13 160)"/>
  <path id="Subtraction_44" data-name="Subtraction 44" class="cls-1" d="M0,0H0V80a39.747,39.747,0,0,0,15.57-3.143,39.866,39.866,0,0,0,12.714-8.572,39.867,39.867,0,0,0,8.572-12.715,40.133,40.133,0,0,0,0-31.14,39.866,39.866,0,0,0-8.572-12.714A39.866,39.866,0,0,0,15.57,3.143,39.75,39.75,0,0,0,0,0Z" transform="translate(160 240) rotate(180)"/>
  <path id="Subtraction_45" data-name="Subtraction 45" class="cls-2" d="M40,80h0V40H0A40.011,40.011,0,0,1,76.857,24.43,39.989,39.989,0,0,1,40,80Z" transform="translate(160 160)"/>
  <path id="Subtraction_46" data-name="Subtraction 46" class="cls-3" d="M0,80H0V0A39.747,39.747,0,0,1,15.57,3.143a39.866,39.866,0,0,1,12.714,8.572,39.867,39.867,0,0,1,8.572,12.715,40.132,40.132,0,0,1,0,31.14,39.866,39.866,0,0,1-8.572,12.714A39.866,39.866,0,0,1,15.57,76.857,39.75,39.75,0,0,1,0,80Z" transform="translate(200 240)"/>
  <path id="Subtraction_47" data-name="Subtraction 47" class="cls-2" d="M40,0h0V40H0A40.011,40.011,0,0,0,76.857,55.57,39.989,39.989,0,0,0,40,0Z" transform="translate(200 320) rotate(180)"/>
  <path id="Subtraction_48" data-name="Subtraction 48" class="cls-1" d="M0,80H0V0A39.747,39.747,0,0,1,15.57,3.143a39.866,39.866,0,0,1,12.714,8.572,39.867,39.867,0,0,1,8.572,12.715,40.133,40.133,0,0,1,0,31.14,39.866,39.866,0,0,1-8.572,12.714A39.866,39.866,0,0,1,15.57,76.857,39.75,39.75,0,0,1,0,80Z" transform="translate(80 240)"/>
  <path id="Subtraction_49" data-name="Subtraction 49" class="cls-4" d="M40,0h0V40H0A40.011,40.011,0,0,0,76.857,55.57,39.989,39.989,0,0,0,40,0Z" transform="translate(80 320) rotate(180)"/>
</svg>
