<?xml version="1.0" encoding="UTF-8"?>
<svg fill="none" viewBox="0 0 32 36" xmlns="http://www.w3.org/2000/svg">
<path d="m16 17.755c5.05 0 9.1429-3.9212 9.1429-8.7594 0-4.8382-4.0929-8.7594-9.1429-8.7594s-9.1429 3.9212-9.1429 8.7594c0 4.8382 4.0929 8.7594 9.1429 8.7594zm6.4 2.1898h-1.1929c-1.5857 0.698-3.35 1.0949-5.2071 1.0949s-3.6143-0.3969-5.2071-1.0949h-1.1929c-5.3 0-9.6 4.1196-9.6 9.1973v2.8468c0 1.8135 1.5357 3.2848 3.4286 3.2848h25.143c1.8929 0 3.4286-1.4713 3.4286-3.2848v-2.8468c0-5.0777-4.3-9.1973-9.6-9.1973z" fill="#42D98A"/>
</svg>
