<?xml version="1.0" encoding="UTF-8"?>
<svg fill="none" viewBox="0 0 28 33" xmlns="http://www.w3.org/2000/svg">
<path d="m9.25 18.714h-2.5c-0.4125 0-0.75-0.3375-0.75-0.75v-2.5c0-0.4125 0.3375-0.75 0.75-0.75h2.5c0.4125 0 0.75 0.3375 0.75 0.75v2.5c0 0.4125-0.3375 0.75-0.75 0.75zm6.75-0.75v-2.5c0-0.4125-0.3375-0.75-0.75-0.75h-2.5c-0.4125 0-0.75 0.3375-0.75 0.75v2.5c0 0.4125 0.3375 0.75 0.75 0.75h2.5c0.4125 0 0.75-0.3375 0.75-0.75zm6 0v-2.5c0-0.4125-0.3375-0.75-0.75-0.75h-2.5c-0.4125 0-0.75 0.3375-0.75 0.75v2.5c0 0.4125 0.3375 0.75 0.75 0.75h2.5c0.4125 0 0.75-0.3375 0.75-0.75zm-6 6v-2.5c0-0.4125-0.3375-0.75-0.75-0.75h-2.5c-0.4125 0-0.75 0.3375-0.75 0.75v2.5c0 0.4125 0.3375 0.75 0.75 0.75h2.5c0.4125 0 0.75-0.3375 0.75-0.75zm-6 0v-2.5c0-0.4125-0.3375-0.75-0.75-0.75h-2.5c-0.4125 0-0.75 0.3375-0.75 0.75v2.5c0 0.4125 0.3375 0.75 0.75 0.75h2.5c0.4125 0 0.75-0.3375 0.75-0.75zm12 0v-2.5c0-0.4125-0.3375-0.75-0.75-0.75h-2.5c-0.4125 0-0.75 0.3375-0.75 0.75v2.5c0 0.4125 0.3375 0.75 0.75 0.75h2.5c0.4125 0 0.75-0.3375 0.75-0.75zm6-16.25v22c0 1.6562-1.3438 3-3 3h-22c-1.6562 0-3-1.3438-3-3v-22c0-1.6562 1.3438-3 3-3h3v-3.25c0-0.4125 0.3375-0.75 0.75-0.75h2.5c0.4125 0 0.75 0.3375 0.75 0.75v3.25h8v-3.25c0-0.4125 0.3375-0.75 0.75-0.75h2.5c0.4125 0 0.75 0.3375 0.75 0.75v3.25h3c1.6562 0 3 1.3438 3 3zm-3 21.625v-18.625h-22v18.625c0 0.2062 0.16875 0.375 0.375 0.375h21.25c0.2062 0 0.375-0.1688 0.375-0.375z" fill="#FF6474"/>
</svg>
