<?xml version="1.0" encoding="UTF-8"?>
<svg fill="none" viewBox="0 0 33 38" xmlns="http://www.w3.org/2000/svg">
<path d="m10.902 21.214h-2.9464c-0.48616 0-0.88393-0.3978-0.88393-0.8839v-2.9465c0-0.4861 0.39777-0.8839 0.88393-0.8839h2.9464c0.4861 0 0.8839 0.3978 0.8839 0.8839v2.9465c0 0.4861-0.3978 0.8839-0.8839 0.8839zm7.9553-0.8839v-2.9465c0-0.4861-0.3977-0.8839-0.8839-0.8839h-2.9464c-0.4862 0-0.8839 0.3978-0.8839 0.8839v2.9465c0 0.4861 0.3977 0.8839 0.8839 0.8839h2.9464c0.4862 0 0.8839-0.3978 0.8839-0.8839zm7.0715 0v-2.9465c0-0.4861-0.3978-0.8839-0.884-0.8839h-2.9464c-0.4861 0-0.8839 0.3978-0.8839 0.8839v2.9465c0 0.4861 0.3978 0.8839 0.8839 0.8839h2.9464c0.4862 0 0.884-0.3978 0.884-0.8839zm-7.0715 7.0714v-2.9464c0-0.4862-0.3977-0.884-0.8839-0.884h-2.9464c-0.4862 0-0.8839 0.3978-0.8839 0.884v2.9464c0 0.4861 0.3977 0.8839 0.8839 0.8839h2.9464c0.4862 0 0.8839-0.3978 0.8839-0.8839zm-7.0714 0v-2.9464c0-0.4862-0.3978-0.884-0.8839-0.884h-2.9464c-0.48616 0-0.88393 0.3978-0.88393 0.884v2.9464c0 0.4861 0.39777 0.8839 0.88393 0.8839h2.9464c0.4861 0 0.8839-0.3978 0.8839-0.8839zm14.143 0v-2.9464c0-0.4862-0.3978-0.884-0.884-0.884h-2.9464c-0.4861 0-0.8839 0.3978-0.8839 0.884v2.9464c0 0.4861 0.3978 0.8839 0.8839 0.8839h2.9464c0.4862 0 0.884-0.3978 0.884-0.8839zm7.0714-19.152v25.929c0 1.952-1.5837 3.5357-3.5357 3.5357h-25.929c-1.952 0-3.5357-1.5837-3.5357-3.5357v-25.929c0-1.952 1.5837-3.5357 3.5357-3.5357h3.5357v-3.8304c0-0.48616 0.39777-0.88393 0.88393-0.88393h2.9464c0.4861 0 0.8839 0.39777 0.8839 0.88393v3.8304h9.4286v-3.8304c0-0.48616 0.3978-0.88393 0.8839-0.88393h2.9464c0.4862 0 0.884 0.39777 0.884 0.88393v3.8304h3.5357c1.952 0 3.5357 1.5837 3.5357 3.5357zm-3.5357 25.487v-21.951h-25.929v21.951c0 0.2431 0.19889 0.442 0.44197 0.442h25.045c0.2431 0 0.442-0.1989 0.442-0.442z" fill="#fff"/>
</svg>
