<?xml version="1.0" encoding="UTF-8"?>
<svg fill="none" viewBox="0 0 31 35" xmlns="http://www.w3.org/2000/svg">
<path d="m15.5 34.179c2.4441 0 4.4265-1.8994 4.4265-4.2429h-8.8529c0 2.3435 1.9824 4.2429 4.4264 4.2429zm14.904-9.9249c-1.3369-1.3763-3.8384-3.4466-3.8384-10.228 0-5.1511-3.7698-9.2746-8.853-10.286v-1.3816c0-1.1714-0.9908-2.1214-2.2129-2.1214-1.222 0-2.2129 0.94999-2.2129 2.1214v1.3816c-5.0831 1.0116-8.8529 5.1351-8.8529 10.286 0 6.7819-2.5015 8.8522-3.8383 10.228-0.41518 0.4276-0.59924 0.9387-0.59578 1.4392 0.0076116 1.0872 0.89817 2.1214 2.2212 2.1214h26.558c1.3231 0 2.2143-1.0342 2.2212-2.1214 0.0035-0.5005-0.1806-1.0123-0.5957-1.4392z" fill="#fff"/>
</svg>
