<?xml version="1.0" encoding="UTF-8"?>
<svg fill="none" viewBox="0 0 32 37" xmlns="http://www.w3.org/2000/svg">
<path d="m16 18.286c5.05 0 9.1429-4.0928 9.1429-9.1428 0-5.05-4.0929-9.1429-9.1429-9.1429s-9.1429 4.0929-9.1429 9.1429c0 5.05 4.0929 9.1428 9.1429 9.1428zm6.4 2.2857h-1.1929c-1.5857 0.7286-3.35 1.1429-5.2071 1.1429s-3.6143-0.4143-5.2071-1.1429h-1.1929c-5.3 0-9.6 4.3-9.6 9.6v2.9715c0 1.8928 1.5357 3.4285 3.4286 3.4285h25.143c1.8929 0 3.4286-1.5357 3.4286-3.4285v-2.9715c0-5.3-4.3-9.6-9.6-9.6z" fill="#FBFAFF"/>
</svg>
