<svg xmlns="http://www.w3.org/2000/svg" width="35" height="27" fill="none" viewBox="0 0 35 27">
  <path fill="#fff" d="M34.055 14.322 22.543 25.834c-1.028 1.027-2.81.308-2.81-1.165V18.09h-9.318a1.64 1.64 0 0 1-1.644-1.645V9.868a1.64 1.64 0 0 1 1.644-1.644h9.319V1.646c0-1.466 1.775-2.193 2.81-1.165l11.51 11.511a1.659 1.659 0 0 1 0 2.33Zm-20.9 11.17V22.75a.825.825 0 0 0-.821-.822H6.578a2.19 2.19 0 0 1-2.193-2.193V6.58a2.19 2.19 0 0 1 2.193-2.192h5.756c.452 0 .822-.37.822-.822V.824A.825.825 0 0 0 12.334 0H6.578A6.58 6.58 0 0 0 0 6.58v13.156a6.58 6.58 0 0 0 6.578 6.578h5.756c.452 0 .822-.37.822-.822Z"/>
</svg>
